<?xml version="1.0" encoding="utf-8"?>
<!-- Generator: Adobe Illustrator 16.0.0, SVG Export Plug-In . SVG Version: 6.00 Build 0)  -->
<!DOCTYPE svg PUBLIC "-//W3C//DTD SVG 1.1//EN" "http://www.w3.org/Graphics/SVG/1.1/DTD/svg11.dtd">
<svg version="1.1" id="Layer_1" xmlns="http://www.w3.org/2000/svg" xmlns:xlink="http://www.w3.org/1999/xlink" x="0px" y="0px"
	 width="48px" height="48px" viewBox="0 0 48 48" enable-background="new 0 0 48 48" xml:space="preserve">
<path d="M44.363,38.686L32.389,16.533V3.336c0-1.242-1.039-2.232-2.28-2.232H17.886c-1.242,0-2.264,0.99-2.264,2.232v13.197
	L3.639,38.686c-0.914,1.689-0.868,3.741,0.115,5.391c0.983,1.649,2.766,2.667,4.686,2.667h31.115c1.92,0,3.707-1.018,4.69-2.667
	C45.227,42.427,45.277,40.375,44.363,38.686z M25.977,29.418c1.073,0,1.942,0.87,1.942,1.943c0,1.072-0.87,1.942-1.942,1.942
	s-1.942-0.87-1.942-1.942C24.035,30.289,24.904,29.418,25.977,29.418z M20.516,17.741c1.073,0,1.942,0.87,1.942,1.943
	c0,1.072-0.869,1.942-1.942,1.942s-1.942-0.87-1.942-1.942C18.574,18.611,19.443,17.741,20.516,17.741z M20.516,24.521
	c1.738,0,3.148,1.41,3.148,3.148c0,1.738-1.41,3.147-3.148,3.147c-1.739,0-3.148-1.409-3.148-3.147
	C17.368,25.93,18.777,24.521,20.516,24.521z M38.593,40.666c-0.404,0.688-1.142,1.094-1.938,1.094H11.339
	c-0.796,0-1.534-0.406-1.938-1.094c-0.404-0.687-0.415-1.528-0.028-2.225l3.043-5.47c0.434-0.782,1.29-1.23,2.18-1.145
	c4.041,0.385,8.583,3.843,12.642,3.688c2.174-0.083,4.192-0.875,6.114-1.934c1.085-0.599,2.45-0.206,3.052,0.877l2.218,3.983
	C39.008,39.137,38.997,39.979,38.593,40.666z"/>
</svg>
