<?xml version="1.0" encoding="utf-8"?>
<!-- Generator: Adobe Illustrator 16.0.5, SVG Export Plug-In . SVG Version: 6.00 Build 0)  -->
<!DOCTYPE svg PUBLIC "-//W3C//DTD SVG 1.1//EN" "http://www.w3.org/Graphics/SVG/1.1/DTD/svg11.dtd">
<svg version="1.1" id="Layer_1" xmlns="http://www.w3.org/2000/svg" xmlns:xlink="http://www.w3.org/1999/xlink" x="0px" y="0px"
	 width="64px" height="64px" viewBox="0 0 64 64" enable-background="new 0 0 64 64" xml:space="preserve">
<path fill="#030202" d="M2.276,40.033c-0.513,1.582,0,3.119,3.492,2.561s2.936-0.699,5.728-1.957
	c2.796-1.254,5.402-4.236,5.868-4.562c0.467-0.324,0.887-0.279,0.887-0.279c1.116,2.328,6.984,6.426,10.942,7.822
	c3.959,1.398,7.264,1.957,7.264,1.957c-0.371,1.072-0.932,5.168-0.932,5.168c1.352-0.557,9.733-6.098,9.733-6.098
	s3.679-0.885,6.565-2.268c2.887-1.381,6.147-4.068,7.544-5.23c1.397-1.164,5.076-4.425,0.373-8.941
	c-4.704-4.517-10.524-6.333-10.524-6.333s-1.164-1.863-6.52-5.216c-5.355-3.354-11.734-3.399-11.734-3.399
	c1.211,1.816,3.492,7.171,3.492,7.171c-8.15,1.071-12.062,4.75-13.599,5.868c-1.535,1.117-2.143,2.328-2.143,2.328
	s-0.51,0.093-0.604-0.094c-0.093-0.187-1.166-1.536-3.958-3.585c-2.796-2.05-7.311-3.679-10.106-3.818
	c-2.794-0.141-2.28,1.257-1.443,3.306c0.84,2.049,2.47,4.331,3.771,5.961c1.307,1.629,0.42,2.328,0.42,2.328
	S2.789,38.449,2.276,40.033z M49.403,30.859c0-1.749,1.417-3.167,3.167-3.167c1.748,0,3.166,1.418,3.166,3.167
	c0,1.748-1.418,3.166-3.166,3.166C50.82,34.025,49.403,32.607,49.403,30.859z"/>
</svg>
