<?xml version="1.0" encoding="utf-8"?>
<!-- Generator: Adobe Illustrator 16.0.5, SVG Export Plug-In . SVG Version: 6.00 Build 0)  -->
<!DOCTYPE svg PUBLIC "-//W3C//DTD SVG 1.1//EN" "http://www.w3.org/Graphics/SVG/1.1/DTD/svg11.dtd">
<svg version="1.1" id="Layer_1" xmlns="http://www.w3.org/2000/svg" xmlns:xlink="http://www.w3.org/1999/xlink" x="0px" y="0px"
	 width="900px" height="157px" viewBox="0 0 900 157" enable-background="new 0 0 900 157" xml:space="preserve">
<path fill="#CADADD" d="M900,5.191c-14.299,0-30.216,11.266-54.227,11.266c-24.012,0-35.072-11.266-58.273-11.266h0.001
	c-23.202,0-34.264,11.266-58.274,11.266c-24.01,0-39.928-11.266-54.228-11.266c-14.298,0-30.216,11.266-54.226,11.266
	c-24.011,0-35.073-11.266-58.273-11.266l0,0c-23.201,0-34.262,11.266-58.273,11.266c-24.011,0-39.928-11.266-54.227-11.266
	s-30.216,11.266-54.227,11.266c-24.012,0-35.072-11.266-58.273-11.266l0,0c-23.201,0-34.262,11.266-58.273,11.266
	c-24.01,0-39.928-11.266-54.227-11.266s-30.217,11.266-54.227,11.266c-24.012,0-35.073-11.266-58.274-11.266h0.001
	c-23.202,0-34.262,11.266-58.273,11.266C30.216,16.457,14.299,5.191,0,5.191V157h900V5.191"/>
</svg>
