<?xml version="1.0" encoding="iso-8859-1"?>
<!-- Generator: Adobe Illustrator 16.0.4, SVG Export Plug-In . SVG Version: 6.00 Build 0)  -->
<!DOCTYPE svg PUBLIC "-//W3C//DTD SVG 1.1//EN" "http://www.w3.org/Graphics/SVG/1.1/DTD/svg11.dtd">
<svg version="1.1" id="Capa_1" xmlns="http://www.w3.org/2000/svg" xmlns:xlink="http://www.w3.org/1999/xlink" x="0px" y="0px"
	 width="48.5px" height="49.5px" viewBox="0 0 48.5 49.5" style="enable-background:new 0 0 48.5 49.5;" xml:space="preserve">
<g id="MacBook_Pro">
	<g>
		<path d="M24.097,34.906H6.693c-2.863,0-4.573-2.035-4.573-5.445V9.872c0-2.732,2.133-4.641,5.186-4.641h16.791
			c0.553,0,1,0.448,1,1s-0.448,1-1,1H7.306C5.37,7.23,4.12,8.268,4.12,9.872v19.587c0,3.446,1.937,3.446,2.573,3.446h17.403
			c0.553,0,1,0.448,1,1C25.096,34.457,24.649,34.906,24.097,34.906z"/>
		<path d="M41.5,34.906H24.097c-0.553,0-1-0.447-1-1c0-0.552,0.447-1,1-1H41.5c0.639,0,2.572,0,2.572-3.445V9.872
			c0-1.604-1.25-2.641-3.186-2.641h-16.79c-0.553,0-1-0.448-1-1s0.447-1,1-1h16.792c3.053,0,5.186,1.909,5.186,4.641v19.587
			C46.072,32.871,44.363,34.906,41.5,34.906z"/>
	</g>
	<g>
		<path d="M24.059,31.585H7.496c-2.248,0-2.248-1.395-2.248-2.742V10.601c0-0.926,0.371-2.03,2.139-2.03h16.824
			c0.276,0,0.5,0.224,0.5,0.5c0,0.276-0.224,0.5-0.5,0.5H7.387c-0.852,0-1.139,0.26-1.139,1.03v18.243c0,1.408,0,1.744,1.248,1.744
			h16.562c0.276,0,0.5,0.224,0.5,0.5S24.335,31.585,24.059,31.585z"/>
		<path d="M40.734,31.585H24.211c-0.276,0-0.5-0.224-0.5-0.5c0-0.275,0.224-0.5,0.5-0.5h16.523c1.248,0,1.248-0.334,1.248-1.742
			V10.601c0-0.77-0.287-1.03-1.14-1.03H24.211c-0.276,0-0.5-0.224-0.5-0.5c0-0.276,0.224-0.5,0.5-0.5h16.633
			c1.77,0,2.141,1.104,2.141,2.03v18.243C42.982,30.192,42.982,31.585,40.734,31.585z"/>
	</g>
	<g>
		<g>
			<path d="M9.885,36.476H7.844c-0.207,0-0.375-0.168-0.375-0.375s0.168-0.375,0.375-0.375h2.041c0.207,0,0.375,0.168,0.375,0.375
				S10.092,36.476,9.885,36.476z"/>
			<path d="M13.711,36.476H11.67c-0.207,0-0.375-0.168-0.375-0.375s0.168-0.375,0.375-0.375h2.041c0.207,0,0.375,0.168,0.375,0.375
				S13.918,36.476,13.711,36.476z"/>
			<path d="M17.539,36.476h-2.041c-0.207,0-0.375-0.168-0.375-0.375s0.168-0.375,0.375-0.375h2.041c0.207,0,0.375,0.168,0.375,0.375
				S17.746,36.476,17.539,36.476z"/>
			<path d="M21.366,36.476h-2.041c-0.207,0-0.375-0.168-0.375-0.375s0.168-0.375,0.375-0.375h2.041c0.207,0,0.375,0.168,0.375,0.375
				S21.573,36.476,21.366,36.476z"/>
			<path d="M25.191,36.476h-2.041c-0.207,0-0.375-0.168-0.375-0.375s0.168-0.375,0.375-0.375h2.041c0.207,0,0.375,0.168,0.375,0.375
				S25.398,36.476,25.191,36.476z"/>
			<path d="M29.02,36.476h-2.041c-0.207,0-0.375-0.168-0.375-0.375s0.168-0.375,0.375-0.375h2.041c0.207,0,0.375,0.168,0.375,0.375
				S29.227,36.476,29.02,36.476z"/>
			<path d="M32.848,36.476h-2.041c-0.207,0-0.375-0.168-0.375-0.375s0.168-0.375,0.375-0.375h2.041c0.207,0,0.375,0.168,0.375,0.375
				S33.055,36.476,32.848,36.476z"/>
			<path d="M36.675,36.476h-2.043c-0.207,0-0.375-0.168-0.375-0.375s0.168-0.375,0.375-0.375h2.043c0.207,0,0.375,0.168,0.375,0.375
				S36.882,36.476,36.675,36.476z"/>
			<path d="M40.501,36.476H38.46c-0.207,0-0.375-0.168-0.375-0.375s0.168-0.375,0.375-0.375h2.041c0.207,0,0.375,0.168,0.375,0.375
				S40.708,36.476,40.501,36.476z"/>
		</g>
		<g>
			<path d="M9.617,37.473H7.535c-0.207,0-0.375-0.168-0.375-0.375s0.168-0.375,0.375-0.375h2.082c0.207,0,0.375,0.168,0.375,0.375
				S9.824,37.473,9.617,37.473z"/>
			<path d="M13.516,37.473h-2.08c-0.207,0-0.375-0.168-0.375-0.375s0.168-0.375,0.375-0.375h2.08c0.207,0,0.375,0.168,0.375,0.375
				S13.723,37.473,13.516,37.473z"/>
			<path d="M17.415,37.473h-2.081c-0.207,0-0.375-0.168-0.375-0.375s0.168-0.375,0.375-0.375h2.081c0.207,0,0.375,0.168,0.375,0.375
				S17.622,37.473,17.415,37.473z"/>
			<path d="M21.313,37.473h-2.08c-0.207,0-0.375-0.168-0.375-0.375s0.168-0.375,0.375-0.375h2.08c0.207,0,0.375,0.168,0.375,0.375
				S21.521,37.473,21.313,37.473z"/>
			<path d="M25.21,37.473h-2.078c-0.207,0-0.375-0.168-0.375-0.375s0.168-0.375,0.375-0.375h2.078c0.207,0,0.375,0.168,0.375,0.375
				S25.417,37.473,25.21,37.473z"/>
			<path d="M29.111,37.473h-2.08c-0.207,0-0.375-0.168-0.375-0.375s0.168-0.375,0.375-0.375h2.08c0.207,0,0.375,0.168,0.375,0.375
				S29.318,37.473,29.111,37.473z"/>
			<path d="M33.009,37.473h-2.077c-0.207,0-0.375-0.168-0.375-0.375s0.168-0.375,0.375-0.375h2.077c0.207,0,0.375,0.168,0.375,0.375
				S33.216,37.473,33.009,37.473z"/>
			<path d="M36.91,37.473h-2.082c-0.207,0-0.375-0.168-0.375-0.375s0.168-0.375,0.375-0.375h2.082c0.207,0,0.375,0.168,0.375,0.375
				S37.117,37.473,36.91,37.473z"/>
			<path d="M40.809,37.473h-2.08c-0.207,0-0.375-0.168-0.375-0.375s0.168-0.375,0.375-0.375h2.08c0.207,0,0.375,0.168,0.375,0.375
				S41.016,37.473,40.809,37.473z"/>
		</g>
		<g>
			<path d="M9.291,38.545H7.164c-0.207,0-0.375-0.168-0.375-0.375s0.168-0.375,0.375-0.375h2.127c0.207,0,0.375,0.168,0.375,0.375
				S9.498,38.545,9.291,38.545z"/>
			<path d="M13.277,38.545H11.15c-0.207,0-0.375-0.168-0.375-0.375s0.168-0.375,0.375-0.375h2.127c0.207,0,0.375,0.168,0.375,0.375
				S13.484,38.545,13.277,38.545z"/>
			<path d="M17.264,38.545h-2.127c-0.207,0-0.375-0.168-0.375-0.375s0.168-0.375,0.375-0.375h2.127c0.207,0,0.375,0.168,0.375,0.375
				S17.471,38.545,17.264,38.545z"/>
			<path d="M21.25,38.545h-2.127c-0.207,0-0.375-0.168-0.375-0.375s0.168-0.375,0.375-0.375h2.127c0.207,0,0.375,0.168,0.375,0.375
				S21.457,38.545,21.25,38.545z"/>
			<path d="M25.234,38.545h-2.125c-0.207,0-0.375-0.168-0.375-0.375s0.168-0.375,0.375-0.375h2.125c0.207,0,0.375,0.168,0.375,0.375
				S25.441,38.545,25.234,38.545z"/>
			<path d="M29.223,38.545h-2.127c-0.207,0-0.375-0.168-0.375-0.375s0.168-0.375,0.375-0.375h2.127c0.207,0,0.375,0.168,0.375,0.375
				S29.43,38.545,29.223,38.545z"/>
			<path d="M33.207,38.545h-2.125c-0.207,0-0.375-0.168-0.375-0.375s0.168-0.375,0.375-0.375h2.125c0.207,0,0.375,0.168,0.375,0.375
				S33.414,38.545,33.207,38.545z"/>
			<path d="M37.195,38.545h-2.129c-0.207,0-0.375-0.168-0.375-0.375s0.168-0.375,0.375-0.375h2.129c0.207,0,0.375,0.168,0.375,0.375
				S37.402,38.545,37.195,38.545z"/>
			<path d="M41.182,38.545h-2.127c-0.207,0-0.375-0.168-0.375-0.375s0.168-0.375,0.375-0.375h2.127c0.207,0,0.375,0.168,0.375,0.375
				S41.389,38.545,41.182,38.545z"/>
		</g>
	</g>
	<g>
		<path style="fill:none;stroke:#000000;stroke-width:1.84;stroke-linecap:round;stroke-linejoin:round;stroke-miterlimit:10;" d="
			M24.14,33.873"/>
	</g>
	<g>
		<path d="M24.173,41.367H1.928c-0.647,0-1.22-0.314-1.568-0.863c-0.41-0.645-0.446-1.514-0.094-2.27l1.92-3.668
			c0.556-1.197,1.898-1.641,2.963-1.641h19.024c0.553,0,1,0.449,1,1c0,0.553-0.447,1-1,1H5.148c-0.446,0-1.003,0.166-1.171,0.525
			l-1.92,3.67c-0.041,0.09-0.041,0.184-0.03,0.246h22.146c0.553,0,1,0.446,1,1C25.173,40.918,24.726,41.367,24.173,41.367z"/>
		<path d="M24.23,44.27H2.035c-2.011,0-2.022-2.551-2.029-4.239L0,39.465c-0.011-0.551,0.429-1.008,0.98-1.021
			c0.007,0,0.014,0,0.02,0c0.544,0,0.989,0.437,1,0.979l0.006,0.596c0.002,0.605,0.008,1.816,0.188,2.248H24.23c0.553,0,1,0.447,1,1
			C25.23,43.819,24.783,44.27,24.23,44.27z"/>
		<path d="M46.572,41.367H24.326c-0.553,0-1-0.449-1-1c0-0.553,0.447-1,1-1h22.146c0.008-0.066,0.004-0.168-0.052-0.287
			l-1.879-3.586c-0.188-0.404-0.746-0.568-1.19-0.568H24.326c-0.553,0-1-0.446-1-1c0-0.551,0.447-1,1-1h19.025
			c1.062,0,2.405,0.443,2.981,1.684l1.879,3.586c0.373,0.795,0.338,1.665-0.073,2.312C47.791,41.051,47.221,41.367,46.572,41.367z"
			/>
		<path d="M46.464,44.27H24.27c-0.553,0-1-0.448-1-1c0-0.553,0.447-1,1-1h22.037c0.18-0.432,0.186-1.643,0.188-2.251l0.004-0.591
			c0.013-0.553,0.448-0.992,1.021-0.981c0.553,0.011,0.992,0.468,0.979,1.019l-0.004,0.562C48.486,41.717,48.477,44.27,46.464,44.27
			z"/>
	</g>
</g>
</svg>
