<?xml version="1.0" encoding="utf-8"?>
<!-- Generator: Adobe Illustrator 16.0.0, SVG Export Plug-In . SVG Version: 6.00 Build 0)  -->
<!DOCTYPE svg PUBLIC "-//W3C//DTD SVG 1.1//EN" "http://www.w3.org/Graphics/SVG/1.1/DTD/svg11.dtd">
<svg version="1.1" id="Layer_1" xmlns="http://www.w3.org/2000/svg" xmlns:xlink="http://www.w3.org/1999/xlink" x="0px" y="0px"
	 width="48px" height="48px" viewBox="0 0 48 48" enable-background="new 0 0 48 48" xml:space="preserve">
<g>
	<path d="M45.829,31.91c-0.938-0.964-2.479-0.985-3.442-0.048l-3.736,3.634l-3.45-3.518l4.392-4.272
		c0.662-0.644,1.049-1.542,1.061-2.464c0.013-0.935-0.339-1.82-0.992-2.492L24.467,7.131c-1.306-1.341-3.614-1.373-4.955-0.068
		L7.266,18.976c-1.385,1.348-1.415,3.571-0.067,4.955l15.194,15.619c0.665,0.684,1.557,1.061,2.511,1.061
		c0.918,0,1.786-0.352,2.443-0.992l4.392-4.272l3.422,3.546l-3.735,3.634c-0.964,0.938-0.985,2.479-0.048,3.442
		c0.478,0.491,1.111,0.737,1.745,0.737c0.612,0,1.225-0.229,1.698-0.689l10.96-10.662C46.745,34.415,46.766,32.874,45.829,31.91z
		 M25.311,37.524c-0.148,0.144-0.318,0.165-0.407,0.165c-0.091,0-0.269-0.023-0.417-0.176l-4.118-4.233l5.36-5.214
		c0.578-0.563,0.591-1.487,0.028-2.065c-0.562-0.578-1.486-0.59-2.065-0.028l-5.36,5.214l-2.884-2.965l5.36-5.214
		c0.578-0.562,0.591-1.487,0.028-2.065c-0.562-0.578-1.487-0.59-2.065-0.029l-5.36,5.214l-1.033-1.062L25.459,12.34l12.108,12.446
		c0.109,0.112,0.168,0.259,0.166,0.417c-0.002,0.153-0.066,0.302-0.176,0.409L25.311,37.524z"/>
	<path d="M17.222,5.995l-2.199-2.261c-0.722-0.742-1.709-1.167-2.744-1.181c-1.036-0.015-2.035,0.383-2.776,1.105l-1.635,1.59
		l-3.28-3.372c-0.562-0.578-1.487-0.59-2.065-0.028C1.945,2.411,1.932,3.335,2.494,3.914l3.28,3.372l-1.635,1.59
		c-0.742,0.722-1.167,1.709-1.182,2.745c-0.014,1.035,0.384,2.034,1.106,2.776l2.198,2.26L17.222,5.995z"/>
</g>
</svg>
